#!OML:ASF F:\VICON\USERDATA\INSTALL\SteveWalk\SteveWalk.ASF
:FULLY-SPECIFIED
:DEGREES
335
root 0.401165 16.0571 24.8874 18.055 7.67863 4.51677
lowerback -15.2735 -3.45792 -6.39423
upperback -4.81359 -3.58642 -0.0693906
thorax 3.80409 -1.77206 2.86904
lowerneck -3.83442 -1.74947 -0.901653
upperneck 9.96198 -2.52163 2.37121
head 3.97911 -1.17598 0.829685
rclavicle 2.64646e-014 3.93842e-015
rhumerus -83.826 -37.84 -14.6565
rradius 10.4737
rwrist 52.4176
rhand -17.1386 -32.0731
rfingers 7.12502
rthumb 9.10159 -61.8567
lclavicle 2.64646e-014 3.93842e-015
lhumerus -13.8151 -10.1922 82.42
lradius 45.5491
lwrist 13.702
lhand -21.6617 -16.1529
lfingers 7.12502
lthumb 4.73546 13.7742
rfemur -49.1898 -8.25331 21.0138
rtibia 16.7048
rfoot -12.1494 5.1556
rtoes -12.2811
lfemur -4.8305 5.29243 -24.9722
ltibia 19.8663
lfoot -24.7619 -12.6522
ltoes -20.4774
336
root 0.401834 16.0292 25.1036 18.1532 7.92857 4.68128
lowerback -15.3156 -3.54754 -6.39516
upperback -4.82929 -3.70401 -0.0113067
thorax 3.82538 -1.83009 2.90611
lowerneck -3.87667 -1.7559 -0.87724
upperneck 9.89308 -2.51105 2.17608
head 3.95836 -1.17854 0.760455
rclavicle 2.51199e-015 1.13307e-014
rhumerus -85.0721 -37.8342 -12.5058
rradius 10.336
rwrist 53.7869
rhand -13.7673 -33.4993
rfingers 7.12502
rthumb 12.3535 -63.1143
lclavicle 2.51199e-015 1.13307e-014
lhumerus -13.572 -10.2591 82.4216
lradius 46.4359
lwrist 13.5733
lhand -22.0071 -16.4559
lfingers 7.12502
lthumb 4.40191 13.4783
rfemur -49.7738 -8.57472 21.0186
rtibia 16.8741
rfoot -13.6739 6.3545
rtoes -8.61886
lfemur -3.62794 4.62457 -24.8937
ltibia 19.0415
lfoot -23.7407 -12.7752
ltoes -20.9501
337
root 0.399823 15.9961 25.3136 18.2537 7.97307 5.02199
lowerback -15.4073 -3.58179 -6.60312
upperback -4.73585 -3.70691 -0.0156684
thorax 3.98532 -1.83777 3.01001
lowerneck -3.9439 -1.81835 -0.904164
upperneck 9.59845 -2.56486 1.95132
head 3.86399 -1.21708 0.687424
rclavicle 7.92499e-015 -4.47266e-015
rhumerus -87.6128 -38.2401 -8.05758
rradius 10.0408
rwrist 56.8995
rhand -12.8953 -33.3518
rfingers 7.12502
rthumb 13.1941 -62.9143
lclavicle 7.92499e-015 -4.47266e-015
lhumerus -13.2402 -10.2019 82.4468
lradius 47.3746
lwrist 13.2914
lhand -22.1359 -16.4203
lfingers 7.12502
lthumb 4.27755 13.5164
rfemur -49.8736 -8.07865 20.1746
rtibia 16.7677
rfoot -10.9043 6.60351
rtoes -4.34616
lfemur -2.75799 3.94953 -25.0634
ltibia 18.8145
lfoot -21.7233 -13.1032
ltoes -20.5386
338
root 0.408396 15.9706 25.5367 18.2958 8.31054 4.81881
lowerback -15.6509 -3.63276 -6.042
upperback -4.63506 -3.84461 0.107911
thorax 4.21338 -1.91195 2.78296
lowerneck -3.96073 -1.79607 -0.823155
upperneck 9.2367 -2.50512 1.64073
head 3.73114 -1.19951 0.573265
rclavicle 3.62999e-014 1.22253e-014
rhumerus -85.5773 -37.8949 -11.2542
rradius 10.2337
rwrist 53.9734
rhand -12.3865 -34.2751
rfingers 7.12502
rthumb 13.6845 -63.8052
lclavicle 3.62999e-014 1.22253e-014
lhumerus -13.039 -9.91523 82.4249
lradius 48.25
lwrist 13.1606
lhand -22.2227 -16.6998
lfingers 7.12502
lthumb 4.19371 13.2386
rfemur -49.5914 -7.69876 19.9562
rtibia 16.7007
rfoot -10.3445 6.45311
rtoes -0.406595
lfemur -1.96596 3.23882 -24.5976
ltibia 18.9711
lfoot -23.0147 -12.2241
ltoes -23.3115
339
root 0.413578 15.947 25.7647 18.2988 8.60211 4.32061
lowerback -15.8227 -3.6756 -5.23866
upperback -4.64365 -4.02768 0.345811
thorax 4.28119 -2.00091 2.53786
lowerneck -3.95728 -1.70583 -0.881331
upperneck 9.08756 -2.36256 1.48141
head 3.67403 -1.1383 0.537592
rclavicle -3.74554e-014 -3.57812e-015
rhumerus -84.5954 -37.5062 -12.6169
rradius 10.3451
rwrist 52.5475
rhand -12.4412 -34.3134
rfingers 7.12502
rthumb 13.6318 -63.847
lclavicle -3.74554e-014 -3.57812e-015
lhumerus -13.2376 -9.5728 82.3963
lradius 49.1552
lwrist 13.2057
lhand -22.4523 -17.2076
lfingers 7.12502
lthumb 3.97205 12.7351
rfemur -49.2126 -6.68429 19.6782
rtibia 17.0106
rfoot -11.2512 5.12867
rtoes -4.12091
lfemur -1.38235 2.48985 -23.8045
ltibia 19.317
lfoot -23.4337 -11.5754
ltoes -26.8794
340
root 0.406987 15.9139 25.9914 18.228 8.39224 4.02288
lowerback -15.7898 -3.62718 -4.89789
upperback -4.83348 -4.03456 0.562147
thorax 4.05682 -1.99597 2.58173
lowerneck -3.6131 -1.6003 -0.99568
upperneck 9.11739 -2.1976 1.29179
head 3.61378 -1.06987 0.504919
rclavicle 2.47114e-014 -2.78299e-015
rhumerus -86.0132 -37.3489 -10.003
rradius 10.3783
rwrist 54.347
rhand -12.7201 -33.8332
rfingers 7.12502
rthumb 13.363 -63.3847
lclavicle 2.47114e-014 -2.78299e-015
lhumerus -14.0278 -9.20304 82.4935
lradius 50.1307
lwrist 13.1365
lhand -22.6815 -17.699
lfingers 7.12502
lthumb 3.7507 12.2477
rfemur -48.9061 -4.9899 18.9533
rtibia 17.8057
rfoot -11.7494 3.09233
rtoes -11.1976
lfemur -1.00314 1.79994 -23.3548
ltibia 19.7316
lfoot -22.4481 -12.1688
ltoes -26.143
